<?xml version="1.0" encoding="UTF-8"?>
<svg version="1.1" xmlns="http://www.w3.org/2000/svg" width="64" height="64">
<path d="M0 0 C2.7307911 -0.31668834 5.23068096 -0.44404872 7.96484375 -0.43359375 C9.1485128 -0.44145653 9.1485128 -0.44145653 10.35609436 -0.44947815 C12.02636538 -0.45590628 13.69668163 -0.45455111 15.36694336 -0.44604492 C17.92448555 -0.43754326 20.47978859 -0.4662682 23.03710938 -0.49804688 C24.6588535 -0.49965916 26.28060158 -0.49908084 27.90234375 -0.49609375 C29.05089088 -0.51294472 29.05089088 -0.51294472 30.22264099 -0.53013611 C35.55150889 -0.4601287 35.55150889 -0.4601287 37.7035675 1.74777222 C39.15792746 4.27435953 39.36992785 5.64719333 39.35644531 8.53735352 C39.35944641 9.42830215 39.36244751 10.31925079 39.36553955 11.23719788 C39.35319275 12.19146164 39.34084595 13.1457254 39.328125 14.12890625 C39.32625183 15.11495346 39.32437866 16.10100067 39.32244873 17.1169281 C39.31573267 19.19899889 39.30182705 21.28105717 39.28125 23.36303711 C39.25008309 26.55399269 39.24027669 29.74445413 39.234375 32.93554688 C39.2252052 34.95833937 39.2148295 36.98112683 39.203125 39.00390625 C39.19887512 39.96019424 39.19462524 40.91648224 39.19024658 41.90174866 C39.18063904 42.78954514 39.17103149 43.67734161 39.16113281 44.59204102 C39.15430481 45.37273453 39.14747681 46.15342804 39.14044189 46.95777893 C39 49 39 49 38 52 C34.84665706 53.57667147 31.46237759 53.16297041 28 53.16796875 C26.81277344 53.17296135 26.81277344 53.17296135 25.6015625 53.17805481 C23.92708925 53.1831204 22.2526059 53.18546325 20.578125 53.18530273 C18.01024865 53.18749127 15.44280041 53.20565609 12.875 53.22460938 C11.25000147 53.22754291 9.6250009 53.22952797 8 53.23046875 C7.22914062 53.23765427 6.45828125 53.24483978 5.6640625 53.25224304 C0.2288272 53.2288272 0.2288272 53.2288272 -2 51 C-2.25396729 48.95741272 -2.25396729 48.95741272 -2.25878906 46.41430664 C-2.26509338 45.46314468 -2.27139771 44.51198273 -2.27789307 43.53199768 C-2.2738446 42.50179001 -2.26979614 41.47158234 -2.265625 40.41015625 C-2.26849518 38.82695839 -2.26849518 38.82695839 -2.27142334 37.21177673 C-2.27278614 34.97654991 -2.26908313 32.74131519 -2.26074219 30.50610352 C-2.25005478 27.08006016 -2.260629 23.65454247 -2.2734375 20.22851562 C-2.27211571 18.05989467 -2.26955293 15.89127405 -2.265625 13.72265625 C-2.26967346 12.69447281 -2.27372192 11.66628937 -2.27789307 10.60694885 C-2.27158875 9.65263474 -2.26528442 8.69832062 -2.25878906 7.71508789 C-2.25719788 6.87506729 -2.25560669 6.03504669 -2.25396729 5.16957092 C-2 3 -2 3 0 0 Z M2 5 C1.90214659 6.34544327 1.87202015 7.69592563 1.87060547 9.04492188 C1.86745331 9.90251099 1.86430115 10.7601001 1.86105347 11.64367676 C1.8630777 12.57595093 1.86510193 13.5082251 1.8671875 14.46875 C1.86623077 15.41939331 1.86527405 16.37003662 1.86428833 17.3494873 C1.86360643 19.36368882 1.86546138 21.37789252 1.86962891 23.39208984 C1.87497702 26.48670355 1.86968423 29.5811721 1.86328125 32.67578125 C1.86394203 34.62760449 1.86522319 36.57942764 1.8671875 38.53125 C1.86516327 39.46352417 1.86313904 40.39579834 1.86105347 41.35632324 C1.86420563 42.21391235 1.86735779 43.07150146 1.87060547 43.95507812 C1.87140106 44.71373169 1.87219666 45.47238525 1.87301636 46.25402832 C1.81078913 48.02877312 1.81078913 48.02877312 3 49 C5.29151417 49.08790975 7.58572524 49.10694038 9.87890625 49.09765625 C10.5655687 49.0962413 11.25223114 49.09482635 11.95970154 49.09336853 C14.16067801 49.08775479 16.36155409 49.07520007 18.5625 49.0625 C20.05143083 49.05748676 21.54036324 49.05292355 23.02929688 49.04882812 C26.68623075 49.03778093 30.34310558 49.02050713 34 49 C34.02527124 42.75204325 34.04283344 36.50409959 34.05493164 30.25610352 C34.05997298 28.12881986 34.06680591 26.00153969 34.07543945 23.87426758 C34.08751379 20.82372174 34.09323014 17.77322155 34.09765625 14.72265625 C34.10539818 13.28672874 34.10539818 13.28672874 34.11329651 11.8217926 C34.11337204 10.94095505 34.11344757 10.06011749 34.11352539 9.15258789 C34.115746 8.37315323 34.11796661 7.59371857 34.12025452 6.79066467 C34.19571386 4.97633465 34.19571386 4.97633465 33 4 C30.79349344 3.89987599 28.58377614 3.8691882 26.375 3.8671875 C25.38185791 3.86575241 25.38185791 3.86575241 24.36865234 3.86428833 C22.96647039 3.86360674 21.5642853 3.86545958 20.16210938 3.86962891 C18.00904287 3.87497754 15.85618498 3.8696833 13.703125 3.86328125 C12.34374954 3.86394204 10.9843742 3.86522321 9.625 3.8671875 C7.75714844 3.86887939 7.75714844 3.86887939 5.8515625 3.87060547 C3.10094569 3.67427873 3.10094569 3.67427873 2 5 Z " fill="#000000" transform="translate(8,11)"/>
<path d="M0 0 C0.79148437 -0.0033284 1.58296875 -0.0066568 2.3984375 -0.01008606 C4.07291075 -0.01515165 5.7473941 -0.0174945 7.421875 -0.01733398 C9.98975135 -0.01952252 12.55719959 -0.03768734 15.125 -0.05664062 C16.74999853 -0.05957416 18.3749991 -0.06155922 20 -0.0625 C21.15628906 -0.07327827 21.15628906 -0.07327827 22.3359375 -0.08427429 C27.7711728 -0.06085845 27.7711728 -0.06085845 30 2.16796875 C30.25396729 4.21055603 30.25396729 4.21055603 30.25878906 6.75366211 C30.26509338 7.70482407 30.27139771 8.65598602 30.27789307 9.63597107 C30.2738446 10.66617874 30.26979614 11.69638641 30.265625 12.7578125 C30.26849518 14.34101036 30.26849518 14.34101036 30.27142334 15.95619202 C30.27278614 18.19141884 30.26908313 20.42665356 30.26074219 22.66186523 C30.25005478 26.08790859 30.260629 29.51342628 30.2734375 32.93945312 C30.27211571 35.10807408 30.26955293 37.2766947 30.265625 39.4453125 C30.26967346 40.47349594 30.27372192 41.50167938 30.27789307 42.5610199 C30.27158875 43.51533401 30.26528442 44.46964813 30.25878906 45.45288086 C30.25719788 46.29290146 30.25560669 47.13292206 30.25396729 47.99839783 C30 50.16796875 30 50.16796875 28 53.16796875 C25.375 53.35546875 25.375 53.35546875 23 53.16796875 C23 51.84796875 23 50.52796875 23 49.16796875 C23.66 48.83796875 24.32 48.50796875 25 48.16796875 C25 33.97796875 25 19.78796875 25 5.16796875 C14.77 4.83796875 4.54 4.50796875 -6 4.16796875 C-6.33 5.15796875 -6.66 6.14796875 -7 7.16796875 C-8.32 6.83796875 -9.64 6.50796875 -11 6.16796875 C-10.625 3.73046875 -10.625 3.73046875 -10 1.16796875 C-6.84665706 -0.40870272 -3.46237759 0.00499834 0 0 Z " fill="#000000" transform="translate(28,-0.16796875)"/>
</svg>
