<?xml version="1.0" encoding="UTF-8"?>
<svg version="1.1" xmlns="http://www.w3.org/2000/svg" width="128" height="128">
<path d="M0 0 C0.85658707 -0.00852997 1.71317413 -0.01705994 2.59571838 -0.02584839 C3.53242371 -0.02494202 4.46912903 -0.02403564 5.43421936 -0.02310181 C6.42309647 -0.02981903 7.41197357 -0.03653625 8.43081665 -0.04345703 C11.70682265 -0.06248901 14.98262438 -0.06636374 18.25868225 -0.06851196 C20.53167811 -0.07493582 22.80467314 -0.08166386 25.07766724 -0.08868408 C29.84497495 -0.10066955 34.61221013 -0.10436355 39.37953186 -0.10317993 C45.4943138 -0.10297657 51.60863187 -0.13029126 57.72330379 -0.16472435 C62.41841782 -0.18693836 67.11341919 -0.19101917 71.8085804 -0.18996048 C74.06327986 -0.19232425 76.31798206 -0.20119117 78.57262993 -0.21662521 C81.72344032 -0.23617544 84.87323713 -0.23049018 88.02406311 -0.21841431 C88.9587442 -0.22965332 89.89342529 -0.24089233 90.85643005 -0.25247192 C97.16322152 -0.19090908 97.16322152 -0.19090908 100.40713501 2.16677856 C101.7938385 4.26742554 101.7938385 4.26742554 101.75086975 6.36361694 C100.60474397 8.64358859 99.64638892 9.39425717 97.4813385 10.72836304 C96.75116516 11.18976685 96.02099182 11.65117065 95.26869202 12.1265564 C94.45199036 12.62679321 93.6352887 13.12703003 92.7938385 13.64242554 C85.857411 17.98579603 79.03605304 22.44054215 72.29774475 27.08383179 C70.06231058 28.61377602 67.82598005 30.14240256 65.5894928 31.67080688 C64.10096194 32.69338869 62.61656129 33.7220089 61.1363678 34.75662231 C59.03456937 36.22377458 56.91827501 37.66737639 54.79774475 39.10726929 C54.16510208 39.55760025 53.53245941 40.00793121 52.88064575 40.47190857 C48.50883088 43.39731605 48.50883088 43.39731605 45.29823303 42.8140564 C42.06787165 40.81909253 38.86278403 38.81078109 35.71961975 36.68148804 C35.0419455 36.2278186 34.36427124 35.77414917 33.6660614 35.30673218 C31.47657301 33.83958696 29.29145516 32.36607201 27.1063385 30.89242554 C25.61063024 29.88855432 24.11461729 28.88513692 22.61830139 27.88217163 C19.6789277 25.91120021 16.74106622 23.9380097 13.80458069 21.96273804 C8.79021763 18.59086337 3.76203945 15.23986021 -1.2686615 11.89242554 C-2.65547445 10.96808769 -4.04220592 10.04362757 -5.42881775 9.11898804 C-6.34534119 8.50797241 -7.26186462 7.89695679 -8.2061615 7.26742554 C-7.8936615 4.89242554 -7.8936615 4.89242554 -7.2061615 2.26742554 C-4.12415272 0.21275302 -3.48109029 0.01567748 0 0 Z " fill="#1E8BE1" transform="translate(17.206161499023438,25.732574462890625)"/>
<path d="M0 0 C1.98828125 0.9609375 1.98828125 0.9609375 4.3125 2.375 C7.53517248 4.33377207 10.19081061 5.76860064 14 6 C16.52427739 4.83926389 16.52427739 4.83926389 18.8125 3.0625 C19.60269531 2.49660156 20.39289063 1.93070312 21.20703125 1.34765625 C21.79871094 0.90292969 22.39039062 0.45820312 23 0 C29.53895343 3.10102592 35.54976794 6.76380255 41.625 10.6875 C42.58615723 11.30383301 43.54731445 11.92016602 44.53759766 12.55517578 C47.36073921 14.36650643 50.18056565 16.18290625 53 18 C54.51536863 18.97305562 56.03096822 19.94575171 57.546875 20.91796875 C60.70049811 22.94131786 63.85133078 24.96894716 67 27 C66.6875 29.375 66.6875 29.375 66 32 C62.91799122 34.05467252 62.2749288 34.25174806 58.7938385 34.26742554 C57.5089579 34.28022049 57.5089579 34.28022049 56.19812012 34.29327393 C55.26141479 34.29236755 54.32470947 34.29146118 53.35961914 34.29052734 C52.37074203 34.29724457 51.38186493 34.30396179 50.36302185 34.31088257 C47.08701585 34.32991455 43.81121412 34.33378927 40.53515625 34.3359375 C38.26216039 34.34236135 35.98916536 34.3490894 33.71617126 34.35610962 C28.94886355 34.36809509 24.18162837 34.37178909 19.41430664 34.37060547 C13.2995247 34.37040211 7.18520663 34.3977168 1.07053471 34.43214989 C-3.62457932 34.4543639 -8.31958069 34.45844471 -13.0147419 34.45738602 C-15.26944135 34.45974979 -17.52414356 34.46861671 -19.77879143 34.48405075 C-22.92960182 34.50360097 -26.07939862 34.49791572 -29.23022461 34.48583984 C-30.63224625 34.50269836 -30.63224625 34.50269836 -32.06259155 34.51989746 C-38.35045941 34.45851934 -38.35045941 34.45851934 -41.61061096 32.15713501 C-43 30 -43 30 -43 27 C-41.60498047 25.7800293 -41.60498047 25.7800293 -39.6171875 24.57421875 C-38.49944946 23.88356323 -38.49944946 23.88356323 -37.35913086 23.17895508 C-36.53936768 22.6867749 -35.71960449 22.19459473 -34.875 21.6875 C-33.14403587 20.6232011 -31.41358899 19.55806059 -29.68359375 18.4921875 C-28.76433105 17.92983398 -27.84506836 17.36748047 -26.89794922 16.78808594 C-21.87392635 13.68817494 -16.9094393 10.49501756 -11.9375 7.3125 C-10.07233395 6.11996789 -8.20650283 4.92847498 -6.33984375 3.73828125 C-5.54956787 3.23337158 -4.75929199 2.72846191 -3.94506836 2.20825195 C-2 1 -2 1 0 0 Z " fill="#1F8FE9" transform="translate(52,68)"/>
<path d="M0 0 C4.36756901 1.7470276 7.8577663 3.75085684 11.6875 6.375 C13.00506039 7.26584385 14.3227761 8.156458 15.640625 9.046875 C16.33865234 9.52060547 17.03667969 9.99433594 17.75585938 10.48242188 C21.80180654 13.21845403 25.87137 15.9190974 29.9375 18.625 C31.48837742 19.65870989 33.03916699 20.69255161 34.58984375 21.7265625 C35.24847412 22.16564941 35.90710449 22.60473633 36.58569336 23.05712891 C37.05241455 23.36827637 37.51913574 23.67942383 38 24 C35.12869136 27.07213183 32.2156351 29.29179213 28.640625 31.49609375 C27.60679688 32.13740234 26.57296875 32.77871094 25.5078125 33.43945312 C23.89519531 34.42848633 23.89519531 34.42848633 22.25 35.4375 C21.19039062 36.09298828 20.13078125 36.74847656 19.0390625 37.42382812 C16.97402511 38.70102557 14.90702983 39.97506398 12.83789062 41.24560547 C10.32841185 42.79697457 7.84292332 44.38033609 5.359375 45.97265625 C2 48 2 48 0 48 C0 32.16 0 16.32 0 0 Z " fill="#1E8AE0" transform="translate(9,40)"/>
<path d="M0 0 C0 15.84 0 31.68 0 48 C-3.90692557 46.43722977 -6.91262377 44.9409961 -10.421875 42.734375 C-11.44796875 42.09113281 -12.4740625 41.44789062 -13.53125 40.78515625 C-15.12453125 39.77775391 -15.12453125 39.77775391 -16.75 38.75 C-17.79671875 38.09386719 -18.8434375 37.43773437 -19.921875 36.76171875 C-26.01119258 32.93306032 -32.04140124 29.02914774 -38 25 C-35.26092039 22.09499917 -32.53463805 19.90062601 -29.1484375 17.79296875 C-28.21386719 17.20580078 -27.27929688 16.61863281 -26.31640625 16.01367188 C-25.34574219 15.41103516 -24.37507813 14.80839844 -23.375 14.1875 C-16.7651631 10.06422079 -10.2804428 5.86922417 -3.98291016 1.27856445 C-2 0 -2 0 0 0 Z " fill="#2090EA" transform="translate(119,40)"/>
</svg>
