<?xml version="1.0" encoding="UTF-8"?>
<svg version="1.1" xmlns="http://www.w3.org/2000/svg" width="1001" height="1001">
<path d="M0 0 C0.92989746 0.43666992 1.85979492 0.87333984 2.81787109 1.32324219 C39.33750621 18.61949003 74.06392378 41.71064382 104.64672852 68.11767578 C106.78392113 69.96188716 108.93513197 71.7862506 111.10546875 73.59130859 C119.91847506 80.96114712 128.13732435 88.82687045 136.23364258 96.97290039 C138.32085192 99.07089508 140.4186359 101.15789115 142.51757812 103.24414062 C149.09601446 109.81650901 155.44425241 116.38887816 161.17993164 123.72070312 C163.0584053 126.07314177 165.05415453 128.25375076 167.125 130.4375 C174.3977515 138.4235161 180.62066879 147.29929611 187 156 C187.48678223 156.66112793 187.97356445 157.32225586 188.47509766 158.00341797 C232.61124349 218.10335578 261.69864904 287.84288196 282 413 C282.13136353 414.81564453 282.13136353 414.81564453 282.26538086 416.66796875 C283.03636314 428.02901175 283.20227609 439.36534026 283.1875 450.75 C283.18656342 451.6911969 283.18562683 452.6323938 283.18466187 453.60211182 C282.98888726 544.94880437 258.24773794 637.63301439 199.75 729.125 C199.37958588 729.68327484 199.00917175 730.24154968 198.62753296 730.81674194 C193.34674547 738.75033111 187.7941159 746.43422173 182 754 C181.2265625 755.01126953 181.2265625 755.01126953 180.4375 756.04296875 C170.95788728 768.34983439 160.9490876 780.12659964 150.37939453 791.50732422 C148.98231325 793.01913925 147.59700462 794.54094604 146.21484375 796.06640625 C138.58299962 804.48165603 130.82053147 812.71951613 122.171875 820.10546875 C120.02997212 821.97385526 117.95323287 823.90267051 115.87915039 825.84570312 C110.09635966 831.2446014 104.08295804 836.21355253 97.81225586 841.03369141 C95.37310487 842.91936193 92.96200613 844.83204774 90.57714844 846.78588867 C81.73505513 854.02171032 72.59958966 860.59031324 63.0625 866.875 C62.35033325 867.34700836 61.6381665 867.81901672 60.90441895 868.30532837 C48.2154214 876.70725897 35.33335276 884.65206622 22 892 C21.13616699 892.47937012 20.27233398 892.95874023 19.38232422 893.45263672 C-34.76062527 923.29237648 -94.84576647 941.15718044 -156 949 C-157.2566748 949.16371094 -158.51334961 949.32742188 -159.80810547 949.49609375 C-198.99579847 954.35378191 -239.84900437 954.05349081 -279 949 C-279.67129944 948.91514343 -280.34259888 948.83028687 -281.03424072 948.74285889 C-331.59248171 942.33360667 -380.7453407 928.43276506 -427 907 C-428.55630127 906.28457031 -428.55630127 906.28457031 -430.14404297 905.5546875 C-451.70183056 895.60238069 -472.30466574 884.26649682 -492 871 C-492.77859375 870.47905762 -493.5571875 869.95811523 -494.359375 869.42138672 C-504.51911225 862.6125023 -514.41375192 855.59539184 -524 848 C-525.25472949 847.01371343 -526.50995817 846.02806169 -527.765625 845.04296875 C-529.6230051 843.58570883 -531.47978174 842.12775767 -533.33325195 840.66552734 C-535.65986252 838.83021478 -537.97874507 837.01496485 -540.40234375 835.30859375 C-540.92957031 834.87675781 -541.45679688 834.44492187 -542 834 C-542 833.34 -542 832.68 -542 832 C-542.53367187 831.78472656 -543.06734375 831.56945312 -543.6171875 831.34765625 C-546.87657608 829.50423156 -549.4281177 826.99986627 -552.125 824.4375 C-555.76403407 820.81366093 -555.76403407 820.81366093 -560 818 C-560 817.34 -560 816.68 -560 816 C-560.66 816 -561.32 816 -562 816 C-562 815.34 -562 814.68 -562 814 C-562.5887793 813.73574219 -563.17755859 813.47148438 -563.78417969 813.19921875 C-566.08072584 811.95631056 -567.60833166 810.64993519 -569.453125 808.8125 C-570.071875 808.19632813 -570.690625 807.58015625 -571.328125 806.9453125 C-571.96234375 806.30335938 -572.5965625 805.66140625 -573.25 805 C-573.8996875 804.35804688 -574.549375 803.71609375 -575.21875 803.0546875 C-575.83234375 802.43851563 -576.4459375 801.82234375 -577.078125 801.1875 C-577.63918945 800.62417969 -578.20025391 800.06085937 -578.77832031 799.48046875 C-580 798 -580 798 -580 796 C-580.66 796 -581.32 796 -582 796 C-583.33984375 794.671875 -583.33984375 794.671875 -584.9375 792.75 C-587.94914729 789.19588208 -591.06469425 785.77448225 -594.25 782.375 C-599.75673203 776.42913312 -604.75470877 770.14701198 -609.68115234 763.71728516 C-610.93097382 762.0898797 -612.19364301 760.47236467 -613.45703125 758.85546875 C-630.66545202 736.75418521 -645.41499243 713.48643896 -659 689 C-659.42877441 688.23042969 -659.85754883 687.46085938 -660.29931641 686.66796875 C-691.39090576 630.4774725 -709.14147919 566.60420734 -716 503 C-716.11859375 501.94506348 -716.2371875 500.89012695 -716.359375 499.80322266 C-725.82166138 412.31931597 -709.22543698 321.80096262 -610.32421875 140.38671875 C-604.70725129 133.4762375 -598.96537773 126.69322092 -592.9453125 120.12890625 C-591.0693637 118.07591008 -589.24992085 115.98407269 -587.4375 113.875 C-584.43306009 110.41954717 -581.2334639 107.21211549 -577.96875 104.00390625 C-576.04856819 102.04943548 -574.27132691 100.02686061 -572.5 97.9375 C-569.58236071 94.54351143 -566.43482314 91.66200542 -563.0234375 88.7734375 C-560.97191028 86.97538083 -559.08480459 85.0842574 -557.1875 83.125 C-553.27582588 79.15196628 -549.04493274 75.68918206 -544.69921875 72.203125 C-542.34785812 70.28392472 -540.10686141 68.3048666 -537.875 66.25 C-530.95566723 60.0434937 -523.44476542 54.55304973 -516 49 C-515.26539551 48.45118164 -514.53079102 47.90236328 -513.77392578 47.33691406 C-489.66842487 29.41108038 -463.77312327 14.55081393 -437 1 C-436.22817383 0.60603027 -435.45634766 0.21206055 -434.66113281 -0.19384766 C-382.93348226 -26.40452799 -325.38153226 -40.68492319 -268 -47 C-266.92862793 -47.12004395 -265.85725586 -47.24008789 -264.75341797 -47.36376953 C-181.66831806 -56.23129014 -93.89817141 -41.78443415 0 0 Z " fill="#E60023" transform="translate(718,49)"/>
<path d="M0 0 C0.79825195 0.30405762 1.59650391 0.60811523 2.41894531 0.92138672 C14.10246372 5.37575987 25.04919531 10.98587291 36 17 C36.64066406 17.34675781 37.28132813 17.69351563 37.94140625 18.05078125 C68.85885676 34.81164535 98.63000921 59.03155591 120 87 C121.01203228 88.28463357 122.02513823 89.5684217 123.0390625 90.8515625 C153.17713314 129.26878308 172.84312348 173.90627069 181.6875 221.875 C181.89020508 222.96087402 182.09291016 224.04674805 182.30175781 225.16552734 C185.46656311 243.16370639 186.33129586 261.08381289 186.26074219 279.33007812 C186.24998666 282.62909208 186.26073025 285.92756448 186.2734375 289.2265625 C186.29565267 322.9799186 180.99896496 357.05265174 170 389 C169.52175794 390.42825908 169.04388823 391.85664289 168.56640625 393.28515625 C162.57931519 410.95248429 155.06646004 427.7026209 146 444 C145.59523438 444.72960937 145.19046875 445.45921875 144.7734375 446.2109375 C132.55072824 468.05410179 117.33230686 487.96121324 100 506 C99.484375 506.53753906 98.96875 507.07507813 98.4375 507.62890625 C91.35481583 514.96697566 84.06363576 521.73204784 76 528 C75.01773438 528.78761719 74.03546875 529.57523438 73.0234375 530.38671875 C27.67069013 566.46925046 -29.00767672 584.57668806 -86.875 578.25 C-125.50286798 573.40315725 -157.92258792 552.81797665 -184.59423828 525.43798828 C-186.71069328 523.27301435 -188.85523319 521.1368961 -191 519 C-191.1124707 519.65194336 -191.22494141 520.30388672 -191.34082031 520.97558594 C-192.60289163 528.12057887 -194.10000196 535.18515554 -195.75 542.25 C-196.0372998 543.48290771 -196.32459961 544.71581543 -196.62060547 545.98608398 C-200.48867303 562.42072112 -204.73513183 578.76440164 -208.93652344 595.11621094 C-209.5230299 597.40163025 -210.10929631 599.68711118 -210.6953125 601.97265625 C-210.98056793 603.08470932 -211.26582336 604.19676239 -211.5597229 605.34251404 C-213.33914515 612.31329569 -215.03385864 619.29946526 -216.671875 626.3046875 C-218.55401528 634.31941171 -220.65794114 642.204119 -223.125 650.0625 C-223.50261475 651.27147949 -223.88022949 652.48045898 -224.26928711 653.72607422 C-228.53021162 667.0750692 -233.67591099 680.04566577 -239 693 C-239.73179574 694.8046774 -240.46356846 696.60936414 -241.1953125 698.4140625 C-245.33365427 708.52391069 -249.90568444 718.33778148 -255 728 C-255.43828125 728.83402344 -255.8765625 729.66804687 -256.328125 730.52734375 C-262.55422037 742.31245284 -269.16389096 753.74392411 -276.40625 764.93359375 C-278.74339599 768.55154372 -280.89957379 772.24003893 -283 776 C-291.63043197 773.85592366 -299.87463227 770.95391255 -308.1875 767.8125 C-309.43798366 767.34395408 -310.6886339 766.87585249 -311.93945312 766.40820312 C-314.96129417 765.27647115 -317.98139651 764.14033289 -321 763 C-322.57863427 745.58054552 -323.37210587 728.30172414 -323.3125 710.8125 C-323.30926727 709.08361038 -323.30926727 709.08361038 -323.30596924 707.3197937 C-323.25134586 689.0233285 -322.57348765 671.13597761 -320 653 C-319.79371841 651.50084501 -319.5876752 650.0016572 -319.38183594 648.50244141 C-316.59520574 628.436175 -312.84168727 608.88106131 -307.80957031 589.25292969 C-306.31244808 583.23735169 -305.04061778 577.17317021 -303.77319336 571.10571289 C-302.67221724 565.8952969 -301.44310664 560.72785569 -300.1328125 555.56640625 C-297.96917846 547.02771065 -296.04506531 538.44088353 -294.1378479 529.84185791 C-291.46877694 517.8180847 -288.79015169 505.8048348 -285.73583984 493.87207031 C-282.18206689 479.95439074 -279.08322574 465.92235953 -275.98046875 451.8984375 C-275.80623886 451.11148499 -275.63200897 450.32453247 -275.45249939 449.51373291 C-274.59513015 445.63885395 -273.74068025 441.76336939 -272.89135742 437.88671875 C-270.76374634 428.21191181 -268.44853913 418.59837644 -266 409 C-265.07187545 405.35689429 -264.15444145 401.71155151 -263.25 398.0625 C-262.91935547 396.78149414 -262.91935547 396.78149414 -262.58203125 395.47460938 C-260.38809976 386.52854714 -260.56515812 379.29323911 -263.1875 370.5 C-266.45672861 358.79329425 -268.80160222 346.94832108 -271 335 C-271.25209229 333.69023193 -271.25209229 333.69023193 -271.50927734 332.35400391 C-275.92053519 309.03604922 -275.53603554 284.25695806 -271 261 C-270.86078125 260.2255957 -270.7215625 259.45119141 -270.578125 258.65332031 C-266.8696206 238.14494758 -258.61107295 218.90866859 -245 203 C-244.21625 201.96875 -243.4325 200.9375 -242.625 199.875 C-229.85572821 185.88960709 -211.47105415 176.98901716 -192.578125 175.78125 C-174.75524811 175.33752692 -158.41492412 179.63134779 -144.5625 191.125 C-128.95587157 206.52179141 -123.97599031 226.31783076 -123.75854492 247.59423828 C-123.73130963 260.043099 -124.00661771 271.85277359 -127 284 C-127.36787166 285.59880107 -127.73502143 287.19776836 -128.1015625 288.796875 C-130.59943776 299.42391792 -133.72575132 309.79762907 -137.09179688 320.17626953 C-142.47967502 336.92793583 -147.59897419 353.75635527 -152.34130859 370.70166016 C-153.05345598 373.18652135 -153.80642815 375.65707902 -154.5625 378.12890625 C-155.7721276 382.13856892 -156.77254987 386.14699825 -157.625 390.25 C-157.86476563 391.38953125 -158.10453125 392.5290625 -158.3515625 393.703125 C-158.56554687 394.79109375 -158.77953125 395.8790625 -159 397 C-159.18820312 397.91136719 -159.37640625 398.82273437 -159.5703125 399.76171875 C-162.3955463 421.05370802 -158.69721053 443.31359858 -146 461 C-139.19411382 469.84387798 -131.52652708 475.50525585 -122 481 C-121.31550781 481.41894531 -120.63101562 481.83789062 -119.92578125 482.26953125 C-115.40578007 484.81901506 -110.4448076 486.1976469 -105.5 487.6875 C-104.78739014 487.90245117 -104.07478027 488.11740234 -103.34057617 488.33886719 C-94.23575097 490.95790562 -85.41362536 491.21304591 -75.97583008 491.24023438 C-73.96618729 491.24986256 -71.956685 491.28102598 -69.94726562 491.3125 C-57.51304274 491.36128557 -45.77989586 489.33668803 -34 485.3125 C-33.25073242 485.05758789 -32.50146484 484.80267578 -31.72949219 484.54003906 C5.79373908 471.24890721 32.84228631 438.71576845 49.625 403.75 C61.24278289 378.91155027 67.89926716 353.05008883 72 326 C72.13422363 325.13068848 72.26844727 324.26137695 72.40673828 323.36572266 C76.55209548 294.97789679 75.68460347 264.05349664 70 236 C69.78037598 234.91315918 69.56075195 233.82631836 69.33447266 232.70654297 C61.2324257 193.90502012 44.01986326 160.03555465 17 131 C16.08154297 130.00033203 16.08154297 130.00033203 15.14453125 128.98046875 C-17.89162149 94.39464574 -70.84476486 74.85113422 -118.00863647 73.6859436 C-123.79758024 73.58670821 -129.58528396 73.56186553 -135.375 73.5625 C-136.59288208 73.56110016 -137.81076416 73.55970032 -139.06555176 73.55825806 C-158.82382244 73.57691508 -177.69119071 74.74854639 -197 79 C-198.41756592 79.30429932 -198.41756592 79.30429932 -199.86376953 79.61474609 C-205.3307729 80.82502962 -210.66474999 82.3064032 -216 84 C-216.76393066 84.23380371 -217.52786133 84.46760742 -218.31494141 84.70849609 C-248.92392386 94.18672153 -279.34104445 110.20230308 -301.52832031 133.6862793 C-303 135 -303 135 -305 135 C-305.26039063 135.59296875 -305.52078125 136.1859375 -305.7890625 136.796875 C-307.08274167 139.15053646 -308.38889218 140.45663682 -310.375 142.25 C-347.93791049 179.13487962 -363.71990023 236.91386042 -364.24145508 287.99633789 C-364.27348634 302.53578412 -363.63178651 316.65987192 -361 331 C-360.83371094 331.91007812 -360.66742188 332.82015625 -360.49609375 333.7578125 C-354.63438097 364.58607973 -342.13792499 395.05171883 -320.875 418.5 C-319 421 -319 421 -319.12109375 422.84375 C-322.12474484 430.21270735 -329.90431116 436.67083284 -336.95703125 439.89453125 C-350.68596925 445.01657115 -365.862295 442.50306837 -379 437 C-387.59570641 432.87119227 -394.88797186 427.30585104 -402 421 C-402.68578125 420.39800781 -403.3715625 419.79601562 -404.078125 419.17578125 C-427.83100081 396.91952973 -439.95878053 362.92114471 -447 332 C-447.2784375 330.78699219 -447.556875 329.57398438 -447.84375 328.32421875 C-451.72780443 310.24394539 -452.406449 292.13024093 -452.375 273.6875 C-452.37512085 272.59415344 -452.3752417 271.50080688 -452.37536621 270.37432861 C-452.33869569 247.00881191 -450.45267174 224.55700925 -444 202 C-443.5578073 200.10525572 -443.12018146 198.20943886 -442.6875 196.3125 C-438.72612064 180.61606671 -432.97414152 165.58443784 -426 151 C-425.67386719 150.31599121 -425.34773438 149.63198242 -425.01171875 148.92724609 C-422.75936139 144.2396956 -420.4120454 139.60722589 -418 135 C-417.5042749 134.04625488 -417.5042749 134.04625488 -416.99853516 133.07324219 C-408.50858996 116.8976192 -397.9031011 101.84225448 -386 88 C-385.09121284 86.90857931 -384.18374083 85.81606266 -383.27734375 84.72265625 C-373.75242674 73.31535087 -363.46549156 62.4818425 -352 53 C-350.93488244 52.08595311 -349.8697798 51.17188883 -348.8046875 50.2578125 C-332.07866366 36.10194997 -313.52103036 23.94467584 -294 14 C-293.0713916 13.5261084 -292.1427832 13.0522168 -291.18603516 12.56396484 C-251.10565006 -7.68751927 -208.66603754 -19.01062937 -164 -23 C-163.21786133 -23.07202637 -162.43572266 -23.14405273 -161.62988281 -23.21826172 C-107.45101862 -27.98832986 -50.60514267 -19.7730516 0 0 Z " fill="#FEFEFE" transform="translate(635,203)"/>
</svg>
