<?xml version="1.0" encoding="UTF-8"?>
<svg version="1.1" xmlns="http://www.w3.org/2000/svg" width="64" height="64">
<path d="M0 0 C1.15129395 -0.00945648 2.30258789 -0.01891296 3.48876953 -0.02865601 C5.3544458 -0.01954697 5.3544458 -0.01954697 7.2578125 -0.01025391 C9.17182861 -0.01455917 9.17182861 -0.01455917 11.12451172 -0.01895142 C13.82485366 -0.02099475 16.52438331 -0.01695032 19.22460938 -0.00292969 C22.6850048 0.0141627 26.14470221 0.00432052 29.60507202 -0.01364708 C32.90601056 -0.02709657 36.20686486 -0.01767885 39.5078125 -0.01025391 C40.75159668 -0.0163266 41.99538086 -0.02239929 43.27685547 -0.02865601 C45.00379639 -0.01447128 45.00379639 -0.01447128 46.765625 0 C47.78027832 0.00238678 48.79493164 0.00477356 49.84033203 0.00723267 C52.3828125 0.38818359 52.3828125 0.38818359 54.20962524 1.56137085 C55.84915904 4.11434883 55.7638803 5.98034642 55.77099609 9.00537109 C55.78045258 10.15666504 55.78990906 11.30795898 55.7996521 12.49414062 C55.79357941 13.7379248 55.78750671 14.98170898 55.78125 16.26318359 C55.78412018 17.53919434 55.78699036 18.81520508 55.78994751 20.12988281 C55.79199085 22.83022475 55.78794642 25.5297544 55.77392578 28.22998047 C55.75683339 31.69037589 55.76667557 35.1500733 55.78464317 38.61044312 C55.79809266 41.91138165 55.78867494 45.21223595 55.78125 48.51318359 C55.78732269 49.75696777 55.79339539 51.00075195 55.7996521 52.28222656 C55.78546738 54.00916748 55.78546738 54.00916748 55.77099609 55.77099609 C55.76860931 56.78564941 55.76622253 57.80030273 55.76376343 58.84570312 C55.3828125 61.38818359 55.3828125 61.38818359 54.20962524 63.21499634 C51.65664727 64.85453013 49.79064968 64.76925139 46.765625 64.77636719 C45.61433105 64.78582367 44.46303711 64.79528015 43.27685547 64.80502319 C42.03307129 64.7989505 40.78928711 64.79287781 39.5078125 64.78662109 C38.23180176 64.78949127 36.95579102 64.79236145 35.64111328 64.7953186 C32.94077134 64.79736194 30.24124169 64.79331751 27.54101562 64.77929688 C24.0806202 64.76220448 20.62092279 64.77204667 17.16055298 64.79001427 C13.85961444 64.80346375 10.55876014 64.79404604 7.2578125 64.78662109 C6.01402832 64.79269379 4.77024414 64.79876648 3.48876953 64.80502319 C2.33747559 64.79556671 1.18618164 64.78611023 0 64.77636719 C-1.01465332 64.77398041 -2.02930664 64.77159363 -3.07470703 64.76913452 C-5.6171875 64.38818359 -5.6171875 64.38818359 -7.44400024 63.21499634 C-9.08353404 60.66201836 -8.9982553 58.79602077 -9.00537109 55.77099609 C-9.01482758 54.61970215 -9.02428406 53.4684082 -9.0340271 52.28222656 C-9.02795441 51.03844238 -9.02188171 49.7946582 -9.015625 48.51318359 C-9.01849518 47.23717285 -9.02136536 45.96116211 -9.02432251 44.64648438 C-9.02636585 41.94614243 -9.02232142 39.24661278 -9.00830078 36.54638672 C-8.99120839 33.0859913 -9.00105057 29.62629389 -9.01901817 26.16592407 C-9.03246766 22.86498554 -9.02304994 19.56413123 -9.015625 16.26318359 C-9.02169769 15.01939941 -9.02777039 13.77561523 -9.0340271 12.49414062 C-9.01984238 10.76719971 -9.01984238 10.76719971 -9.00537109 9.00537109 C-9.00298431 7.99071777 -9.00059753 6.97606445 -8.99813843 5.93066406 C-8.6171875 3.38818359 -8.6171875 3.38818359 -7.44400024 1.56137085 C-4.89102227 -0.07816294 -3.02502468 0.0071158 0 0 Z M3.3828125 10.38818359 C4.69130827 13.95756129 6.25673724 16.91236925 8.421875 20.03271484 C9.00195312 20.87382812 9.58203125 21.71494141 10.1796875 22.58154297 C10.78296875 23.44585937 11.38625 24.31017578 12.0078125 25.20068359 C12.61882813 26.08433594 13.22984375 26.96798828 13.859375 27.87841797 C15.36284725 30.0514052 16.87075984 32.22116235 18.3828125 34.38818359 C14.85712645 39.14340928 11.27507776 43.82180146 7.5078125 48.38818359 C6.72664062 49.33693359 5.94546875 50.28568359 5.140625 51.26318359 C4.56054688 51.96443359 3.98046875 52.66568359 3.3828125 53.38818359 C6.32732545 53.72474226 6.32732545 53.72474226 7.77734375 52.11889648 C8.24527344 51.53873779 8.71320312 50.9585791 9.1953125 50.36083984 C9.71351562 49.73371094 10.23171875 49.10658203 10.765625 48.46044922 C11.29929687 47.79722656 11.83296875 47.13400391 12.3828125 46.45068359 C13.43948159 45.14516127 14.50176263 43.84415591 15.5703125 42.54833984 C16.27220703 41.67640991 16.27220703 41.67640991 16.98828125 40.78686523 C18.3828125 39.38818359 18.3828125 39.38818359 21.3828125 38.38818359 C21.65843018 38.87287109 21.93404785 39.35755859 22.21801758 39.85693359 C27.25186104 49.44587595 27.25186104 49.44587595 35.5625 55.45068359 C38.32917804 55.39319418 40.72073156 55.12965295 43.3828125 54.38818359 C42.0837963 50.82089431 40.53653489 47.95238708 38.30859375 44.88427734 C37.72400391 44.06121094 37.13941406 43.23814453 36.53710938 42.39013672 C35.303399 40.67236182 34.06374588 38.95884034 32.81835938 37.24951172 C32.23763672 36.42773438 31.65691406 35.60595703 31.05859375 34.75927734 C30.52145752 34.01605225 29.98432129 33.27282715 29.4309082 32.50708008 C28.3828125 30.38818359 28.3828125 30.38818359 28.59521484 28.26293945 C29.76190869 25.48580305 31.62699918 23.68643589 33.6953125 21.51318359 C37.00072996 17.95512276 39.87166319 14.53703897 42.3828125 10.38818359 C38.60198211 11.91770134 36.53082612 14.20708569 33.8828125 17.26318359 C31.13765077 20.41259859 28.37147066 23.46744948 25.3828125 26.38818359 C25.10719482 25.90349609 24.83157715 25.41880859 24.54760742 24.91943359 C19.51376396 15.33049124 19.51376396 15.33049124 11.203125 9.32568359 C8.43644696 9.38317301 6.04489344 9.64671424 3.3828125 10.38818359 Z " fill="#000000" transform="translate(8.6171875,-0.38818359375)"/>
<path d="M0 0 C3.109375 -0.5 3.109375 -0.5 7 0 C9.60354754 2.29891049 11.36337499 5.10287164 13.25 8 C13.80284668 8.80711426 14.35569336 9.61422852 14.92529297 10.44580078 C16.06997394 12.12141471 17.20450573 13.80400428 18.32910156 15.49316406 C20.41222577 18.61845912 22.54817833 21.70532592 24.68652344 24.79296875 C26.05253333 26.77011274 27.40642349 28.75503374 28.7578125 30.7421875 C30.06018508 32.63448495 31.39436502 34.50704074 32.8046875 36.3203125 C34 38 34 38 34 40 C30.828125 40.40625 30.828125 40.40625 27 40 C24.83174088 37.81920759 23.39108641 36.03321224 21.75 33.5 C21.05946533 32.49743164 21.05946533 32.49743164 20.35498047 31.47460938 C19.3817158 30.05643314 18.41887722 28.6310534 17.46582031 27.19921875 C16.00796731 25.01195362 14.52142596 22.84743608 13.0234375 20.6875 C10.75347131 17.41284407 8.50474653 14.12459028 6.26660156 10.828125 C4.93837641 8.91105678 3.56089683 7.03539355 2.1796875 5.15625 C0 2 0 2 0 0 Z " fill="#000000" transform="translate(15,12)"/>
</svg>
