<?xml version="1.0" encoding="UTF-8"?>
<svg version="1.1" xmlns="http://www.w3.org/2000/svg" width="1536" height="1024">
<path d="M0 0 C506.88 0 1013.76 0 1536 0 C1536 337.92 1536 675.84 1536 1024 C1029.12 1024 522.24 1024 0 1024 C0 686.08 0 348.16 0 0 Z " fill="#CAD0D8" transform="translate(0,0)"/>
<path d="M0 0 C0.68831764 -0.00320648 1.37663527 -0.00641296 2.08581102 -0.0097166 C4.3913208 -0.01801524 6.69657071 -0.01209286 9.00208473 -0.00622082 C10.67210741 -0.00924156 12.3421287 -0.01313066 14.01214755 -0.01781338 C18.60080774 -0.02811203 23.18938997 -0.02590681 27.77805662 -0.02163279 C32.72703428 -0.01916895 37.675993 -0.02817548 42.62496376 -0.03567028 C52.32039982 -0.04842888 62.0158082 -0.05020952 71.71125124 -0.04787002 C79.59100146 -0.04608798 87.47074327 -0.04783404 95.35049248 -0.05209446 C97.03184035 -0.05298724 97.03184035 -0.05298724 98.74715484 -0.05389806 C101.02416479 -0.0551098 103.30117473 -0.05632393 105.57818468 -0.05754044 C126.9389731 -0.06842047 148.29974574 -0.0662513 169.66053505 -0.06015559 C189.20631172 -0.05498613 208.75203855 -0.06624184 228.29780535 -0.08525381 C248.36253884 -0.10462112 268.42724874 -0.11289015 288.49199164 -0.10913056 C299.75875337 -0.10721682 311.02547268 -0.1097229 322.29222679 -0.1238451 C331.88379308 -0.13574576 341.47529083 -0.13717857 351.06685804 -0.12505493 C355.96097936 -0.11915699 360.85497525 -0.1180921 365.74908829 -0.13005733 C370.22983869 -0.1408847 374.71035846 -0.13785032 379.19109793 -0.12379565 C380.81150768 -0.12114004 382.43193533 -0.12354232 384.05232756 -0.13153151 C401.79811598 -0.21294811 401.79811598 -0.21294811 408.41996193 5.30525684 C409.36742287 6.42480762 409.36742287 6.42480762 410.33402443 7.56697559 C411.30468849 8.67492481 411.30468849 8.67492481 412.29496193 9.80525684 C416.23314087 15.60159064 416.24764049 21.31182525 416.21972084 28.06473255 C416.22354639 29.04764513 416.22737193 30.0305577 416.23131341 31.04325551 C416.24162545 34.33417572 416.23765461 37.62492087 416.23368263 40.91585255 C416.23803013 43.27649058 416.2432134 45.6371272 416.2491703 47.99776173 C416.26256838 54.40897917 416.26313799 60.82013768 416.260607 67.2313664 C416.25932331 71.23729874 416.26194591 75.24322542 416.26559448 79.249156 C416.26618967 79.91460661 416.26678486 80.58005722 416.26739809 81.26567301 C416.26860987 82.61764922 416.269824 83.96962544 416.27104046 85.32160165 C416.28191301 97.99629461 416.27975506 110.67096095 416.27365562 123.3456554 C416.26848861 134.93047613 416.27973668 146.51521272 416.29875384 158.10001681 C416.31814611 170.00493882 416.32638568 181.90982105 416.32263058 193.81475896 C416.3207204 200.49455668 416.32345377 207.17429334 416.33734512 213.85407925 C416.3499225 220.13728274 416.34798 226.42031795 416.33493423 232.70351887 C416.33256862 235.00731367 416.33530258 237.31112031 416.34355736 239.61490154 C416.35402762 242.76455174 416.34592141 245.91363758 416.33324623 249.06326771 C416.34062052 249.97067796 416.3479948 250.8780882 416.35559255 251.81299573 C416.29593621 258.88013798 415.25757648 265.3648673 410.77152443 271.00447559 C403.25854903 277.01485591 397.85759107 279.37428366 388.12477016 279.38869667 C387.44664743 279.3910489 386.7685247 279.39340113 386.0698528 279.39582464 C383.79305113 279.4024921 381.51630683 279.4020571 379.23949623 279.40164661 C377.59238685 279.40494663 375.94527829 279.40867249 374.29817075 279.41278809 C369.76814288 279.42280031 365.23812826 279.42652363 360.7080909 279.4291774 C355.82381892 279.43308268 350.93955742 279.44266077 346.05529213 279.45139027 C334.258934 279.47114687 322.46257502 279.48121922 310.66620448 279.49011806 C305.11120932 279.4945017 299.55621511 279.49986826 294.0012207 279.50510693 C275.53612179 279.52211732 257.07102347 279.53661208 238.60591793 279.54385567 C233.8148473 279.54576556 229.02377668 279.54768589 224.23270607 279.54964161 C222.44651312 279.55036722 222.44651312 279.55036722 220.62423547 279.55110749 C201.32869786 279.55941006 182.0332222 279.58475167 162.73771165 279.61722229 C142.92838644 279.65028591 123.11909272 279.66830374 103.30973977 279.67149991 C92.1870767 279.67366549 81.06450401 279.68242145 69.94186783 279.70796108 C60.47073369 279.7296584 50.9997119 279.73772318 41.52855573 279.7279943 C36.69693353 279.72344701 31.86554317 279.7253609 27.03395271 279.74475574 C22.60790177 279.76236917 18.1822521 279.76140449 13.756197 279.74585845 C12.1579239 279.74347964 10.55962314 279.74782015 8.96139232 279.7596871 C-1.04989071 279.82939706 -9.90517551 279.49709304 -17.91597557 272.87947559 C-22.40730168 267.33136687 -25.15752111 263.19539731 -25.17519665 256.02363777 C-25.17965449 255.18172553 -25.18411234 254.3398133 -25.18870527 253.47238857 C-25.1885209 252.55246047 -25.18833654 251.63253237 -25.18814659 250.68472767 C-25.19182328 249.70352394 -25.19549997 248.72232022 -25.19928807 247.71138304 C-25.21032579 244.4142999 -25.21416891 241.11724828 -25.21797752 237.82014942 C-25.22424208 235.45980701 -25.23088887 233.09946559 -25.23789024 230.73912525 C-25.25711609 223.6498496 -25.26771796 216.56057749 -25.27661803 209.47128227 C-25.28100413 206.13070382 -25.28637009 202.79012687 -25.2916069 199.44954967 C-25.30861668 188.3412916 -25.32311035 177.23303449 -25.33035564 166.1247654 C-25.33226545 163.24344157 -25.3341858 160.36211775 -25.33614159 157.48079395 C-25.33662533 156.76467859 -25.33710907 156.04856323 -25.33760747 155.31074741 C-25.34590595 143.71285065 -25.37124088 132.1150571 -25.40372226 120.51720539 C-25.4368161 108.60331249 -25.45480648 96.689472 -25.45799989 84.7755329 C-25.46016278 78.08895096 -25.46932376 71.4025425 -25.49446106 64.71600246 C-25.51773082 58.42459505 -25.52197919 52.13345837 -25.51169968 45.84201908 C-25.51120396 43.53499228 -25.51753501 41.2279522 -25.53125572 38.92096615 C-25.54896351 35.76670074 -25.54187325 32.61340813 -25.52872276 29.45914173 C-25.53969201 28.55036724 -25.55066126 27.64159276 -25.5619629 26.70527965 C-25.48858922 19.39474646 -23.52964837 13.55423406 -19.11128807 7.69588184 C-18.46933495 7.07584278 -17.82738182 6.45580372 -17.16597557 5.81697559 C-16.5291787 5.17888966 -15.89238182 4.54080372 -15.23628807 3.88338184 C-10.5455408 0.40288075 -5.70029408 0.00403773 0 0 Z " fill="#C4CAD7" transform="translate(572.0409755706787,265.7455244064331)"/>
<path d="M0 0 C1.00952605 -0.00352835 1.00952605 -0.00352835 2.03944656 -0.00712797 C4.32292814 -0.01385123 6.60635326 -0.01335875 8.88984394 -0.01294994 C10.53222708 -0.01624651 12.1746094 -0.01997164 13.81699067 -0.02409142 C18.35237681 -0.03414328 22.88774971 -0.03783332 27.42314541 -0.04048073 C32.30604788 -0.04437443 37.18893977 -0.05395345 42.07183552 -0.0626936 C53.87577557 -0.08248555 65.67971651 -0.09252813 77.48366901 -0.10142139 C83.03719592 -0.10580022 88.59072186 -0.11116811 94.14424801 -0.11641026 C112.59718312 -0.13342602 131.05011763 -0.14792092 149.50305939 -0.155159 C154.29518033 -0.15706902 159.08730126 -0.15898933 163.87942219 -0.16094494 C165.66609608 -0.16167055 165.66609608 -0.16167055 167.4888644 -0.16241082 C186.79059182 -0.17071372 206.09225732 -0.19605348 225.3939577 -0.22852562 C245.19409687 -0.26156566 264.99420454 -0.27960503 284.79437143 -0.28280324 C295.91808427 -0.28497128 307.04170684 -0.29376271 318.16539288 -0.31926441 C327.63783626 -0.34092981 337.11016746 -0.34904242 346.5826328 -0.33929763 C351.41778198 -0.3347407 356.25269951 -0.33671975 361.08781719 -0.35605907 C365.5125852 -0.37360458 369.93695109 -0.37276349 374.36172286 -0.35716178 C375.964082 -0.35477254 377.56646835 -0.35917705 379.16878571 -0.37099043 C381.3448671 -0.38604262 383.51951132 -0.37648521 385.69555664 -0.36076355 C386.90480354 -0.36174036 388.11405044 -0.36271717 389.35994118 -0.36372358 C393.36988193 0.24089863 395.51889784 1.61370197 398.66238117 4.13422108 C401.05249416 7.71939056 400.90960153 9.27290485 400.90289021 13.53123951 C400.90545348 14.50901166 400.90545348 14.50901166 400.90806854 15.50653678 C400.91136746 17.69463585 400.90035338 19.88242947 400.88943195 22.07050037 C400.88886793 23.63742535 400.88918424 25.20435085 400.89031696 26.77127552 C400.89089181 31.02927266 400.87911625 35.28715757 400.86516905 39.54512858 C400.85268358 43.99342486 400.85149292 48.44172358 400.84911823 52.89003468 C400.84289703 61.31541825 400.82647757 69.74075006 400.80641925 78.16611081 C400.78408015 87.75728447 400.77307183 97.34846057 400.76302838 106.93965375 C400.74211189 126.67120512 400.70692349 146.40270984 400.66238117 166.13422108 C397.02890588 164.02235503 394.25955033 161.92687328 391.34988117 158.88422108 C387.97332214 155.42991233 384.51646517 152.19379044 380.85769367 149.04437733 C372.99928639 142.20672402 365.44181109 135.01438486 357.84988117 127.88422108 C357.14484455 127.22301258 356.43980793 126.56180408 355.71340656 125.88055897 C352.39139218 122.75282818 349.10776002 119.59875493 345.89284992 116.36078358 C343.60161119 114.05359504 341.27888003 111.85208011 338.78738117 109.75922108 C335.77770587 107.16787903 332.95149501 104.46167325 330.16238117 101.63422108 C326.79786614 98.2236168 323.319373 95.05263223 319.68191242 91.93890858 C317.47233948 89.96439659 315.41735168 87.88177517 313.34988117 85.75922108 C302.96131244 74.83841977 302.96131244 74.83841977 289.32253742 69.83343983 C288.13531086 69.82957264 286.9480843 69.82570545 285.72488117 69.82172108 C284.54023273 69.80496326 283.3555843 69.78820545 282.13503742 69.77093983 C275.75643707 70.43821748 272.09888655 73.33240229 267.78738117 77.88422108 C265.03522808 80.77261937 262.25673709 83.5087237 259.21706867 86.08734608 C252.68750782 91.73494839 246.72959035 98.0005826 240.66238117 104.13422108 C226.87759338 118.0699372 226.87759338 118.0699372 220.73269367 123.28656483 C215.65116116 127.8215929 210.94750563 132.7897944 206.16238117 137.63422108 C193.57412278 150.37848621 193.57412278 150.37848621 187.2893343 155.73431873 C185.14325434 157.58090074 183.14587028 159.55281252 181.16238117 161.57172108 C179.99571451 162.75922108 178.82904784 163.94672108 177.66238117 165.13422108 C172.05686525 161.01047186 166.63674403 156.70886832 161.28738117 152.25922108 C155.89447751 147.79469977 150.48738144 143.35550969 144.99831867 139.00922108 C143.25819108 137.61246314 141.53714188 136.19187192 139.82644367 134.75922108 C138.86480305 133.95484608 137.90316242 133.15047108 136.91238117 132.32172108 C136.05128742 131.59340076 135.19019367 130.86508045 134.30300617 130.11468983 C127.01277312 124.64701504 120.57591949 124.08798298 111.66238117 125.13422108 C105.24140137 127.29271683 100.35894066 133.01075926 95.51394367 137.52875233 C92.82352246 139.98698651 90.06634881 142.29117717 87.22488117 144.57172108 C82.09987271 148.70833505 77.26674962 153.09741324 72.43972492 157.57172108 C69.55197957 160.23608247 66.61268734 162.82802811 63.64284992 165.39984608 C61.35104962 167.40686646 59.10241365 169.45824959 56.84988117 171.50922108 C53.45154565 174.58168881 49.98647594 177.5186473 46.41238117 180.38422108 C41.34055351 184.48179936 36.60491348 188.86400461 31.86135578 193.32977772 C27.50237608 197.41150361 22.97932959 201.21521463 18.31863117 204.95062733 C14.49500109 208.09387617 10.86848687 211.43796697 7.22488117 214.78656483 C4.38255142 217.39058949 1.49555753 219.93601019 -1.41574383 222.46234608 C-2.80789167 223.67340152 -4.1923485 224.89331666 -5.57199383 226.11859608 C-6.29902508 226.76312733 -7.02605633 227.40765858 -7.77511883 228.07172108 C-8.43382977 228.65824451 -9.0925407 229.24476795 -9.77121258 229.84906483 C-11.33761883 231.13422108 -11.33761883 231.13422108 -12.33761883 231.13422108 C-12.45166172 202.55571115 -12.54015673 173.9772298 -12.59294548 145.39853691 C-12.59919907 142.02519363 -12.60567068 138.6518508 -12.61227703 135.27850819 C-12.61358858 134.60693141 -12.61490014 133.93535464 -12.61625143 133.24342706 C-12.63801288 122.366804 -12.67743839 111.49031297 -12.72338281 100.61376826 C-12.77012701 89.45488959 -12.79753559 78.29605615 -12.8080613 67.13707846 C-12.81458836 60.86857185 -12.82996331 54.60036476 -12.86626911 48.331954 C-12.90015006 42.43455226 -12.91068759 36.53757408 -12.90315723 30.64008427 C-12.9045353 28.4732715 -12.91451442 26.30644489 -12.9336462 24.13971615 C-12.95846025 21.18507497 -12.95256614 18.23204078 -12.93889141 15.27736378 C-12.95345562 14.41646462 -12.96801983 13.55556546 -12.98302537 12.66857845 C-12.927647 8.25332871 -12.77085731 6.66090774 -9.86253929 3.12527466 C-9.02931554 2.46822698 -8.19609179 1.81117929 -7.33761883 1.13422108 C-5.4902533 -0.71314445 -2.47144181 0.00365791 0 0 Z " fill="#F5F5FC" transform="translate(573.3376188278198,277.86577892303467)"/>
<path d="M0 0 C8.28371557 5.79225323 14.94865998 13.64982972 17.4765625 23.55078125 C18.4739843 35.7691983 16.56512103 47.12767594 8.4765625 56.80078125 C-0.13353501 65.97637245 -10.18495273 70.8018094 -22.7734375 71.92578125 C-33.67750614 71.69989659 -43.3849972 66.91787317 -51.2734375 59.61328125 C-53.71442629 56.79088796 -55.5475716 53.91517903 -57.2734375 50.61328125 C-57.89025391 49.50919922 -57.89025391 49.50919922 -58.51953125 48.3828125 C-62.63396411 39.88344774 -62.78317665 28.78934775 -60.2109375 19.73828125 C-55.3779133 8.04548076 -46.58938838 0.03569487 -35.0234375 -4.88671875 C-22.50434543 -8.86925446 -11.00979693 -6.71559778 0 0 Z " fill="#CACED9" transform="translate(654.2734375,310.38671875)"/>
</svg>
